# xmcd
#
# Track frame offsets:
#	150
#	13399
#	30097
#
# Disc length: 598 seconds
#
# Revision: 0
# Processed by: cddbd v1.5.2PL0 Copyright (c) Steve Scherf et al.
# Submitted via: audiograbber 1.83.01
#
DISCID=17025403
DTITLE=Die Kolibris - Hände zum Himmel Party
DYEAR=1999
DGENRE=Schlager
TTITLE0=Die Hände zum Himmel
TTITLE1=Du gehst mir nicht durch die Lappen
TTITLE2=Hände-Disco-Mix
EXTD=
EXTT0=
EXTT1=
EXTT2=
PLAYORDER=
